# MagicaVoxel @ Ephtracy

# group
o 

# material
mtllib jotunheim-1.mtl
usemtl palette

# normals
vn 1 0 0
vn -1 0 0
vn 0 0 1
vn 0 0 -1
vn 0 -1 0
vn 0 1 0

# texcoords
vt 0.970703 0.5
vt 0.986328 0.5
vt 0.994141 0.5

# verts
v -0.6 0.9 -0.1
v -0.6 0.9 -0.2
v -0.6 1 -0.1
v -0.6 1 -0.2
v -0.7 0.8 0
v -0.7 0.8 -0.2
v -0.7 0.9 -0.1
v -0.7 0.9 -0.2
v -0.7 0.9 -0.3
v -0.7 1 0
v -0.7 1 -0.1
v -0.7 1 -0.2
v -0.7 1 -0.3
v -0.7 1.2 0
v -0.7 1.2 -0.1
v -0.7 1.2 -0.2
v -0.8 0.9 -0.2
v -0.8 0.9 -0.3
v -0.8 1 0
v -0.8 1 -0.1
v -0.8 1 -0.2
v -0.8 1 -0.3
v -0.8 1.2 0
v -0.8 1.2 -0.1
v -0.8 1.2 -0.2
v -0.9 0.8 0
v -0.9 0.8 -0.2
v -0.9 1 0
v -0.9 1 -0.2
v -0.7 0.8 0
v -0.7 1 0
v -0.7 1.2 0
v -0.8 1 0
v -0.8 1.2 0
v -0.9 0.8 0
v -0.9 1 0
v -0.6 0.9 -0.1
v -0.6 1 -0.1
v -0.7 0.9 -0.1
v -0.7 1 -0.1
v -0.6 0.9 -0.2
v -0.6 1 -0.2
v -0.7 0.8 -0.2
v -0.7 0.9 -0.2
v -0.7 1 -0.2
v -0.7 1.2 -0.2
v -0.8 0.9 -0.2
v -0.8 1 -0.2
v -0.8 1.2 -0.2
v -0.9 0.8 -0.2
v -0.9 1 -0.2
v -0.7 0.9 -0.3
v -0.7 1 -0.3
v -0.8 0.9 -0.3
v -0.8 1 -0.3
v -0.7 0.8 0
v -0.9 0.8 0
v -0.7 0.8 -0.2
v -0.9 0.8 -0.2
v -0.6 0.9 -0.1
v -0.7 0.9 -0.1
v -0.6 0.9 -0.2
v -0.7 0.9 -0.2
v -0.8 0.9 -0.2
v -0.7 0.9 -0.3
v -0.8 0.9 -0.3
v -0.8 1 0
v -0.9 1 0
v -0.6 1 -0.1
v -0.7 1 -0.1
v -0.8 1 -0.1
v -0.6 1 -0.2
v -0.7 1 -0.2
v -0.8 1 -0.2
v -0.9 1 -0.2
v -0.7 1 -0.3
v -0.8 1 -0.3
v -0.7 1.2 0
v -0.8 1.2 0
v -0.7 1.2 -0.1
v -0.8 1.2 -0.1
v -0.7 1.2 -0.2
v -0.8 1.2 -0.2

# faces
f 1/3/1 2/3/1 3/3/1
f 3/3/1 2/3/1 4/3/1
f 5/3/1 6/3/1 7/3/1
f 7/3/1 6/3/1 8/3/1
f 5/3/1 7/3/1 10/3/1
f 10/3/1 7/3/1 11/3/1
f 8/3/1 9/3/1 12/3/1
f 12/3/1 9/3/1 13/3/1
f 10/2/1 11/2/1 14/2/1
f 11/1/1 12/1/1 15/1/1
f 14/2/1 11/2/1 15/2/1
f 15/1/1 12/1/1 16/1/1
f 21/3/2 18/3/2 17/3/2
f 22/3/2 18/3/2 21/3/2
f 23/2/2 20/2/2 19/2/2
f 24/1/2 21/1/2 20/1/2
f 24/2/2 20/2/2 23/2/2
f 25/1/2 21/1/2 24/1/2
f 28/3/2 27/3/2 26/3/2
f 29/3/2 27/3/2 28/3/2
f 30/3/3 31/3/3 33/3/3
f 31/2/3 32/2/3 33/2/3
f 33/2/3 32/2/3 34/2/3
f 30/3/3 33/3/3 35/3/3
f 35/3/3 33/3/3 36/3/3
f 37/3/3 38/3/3 39/3/3
f 39/3/3 38/3/3 40/3/3
f 44/3/4 42/3/4 41/3/4
f 45/3/4 42/3/4 44/3/4
f 47/3/4 44/3/4 43/3/4
f 48/1/4 46/1/4 45/1/4
f 49/1/4 46/1/4 48/1/4
f 50/3/4 47/3/4 43/3/4
f 50/3/4 48/3/4 47/3/4
f 51/3/4 48/3/4 50/3/4
f 54/3/4 53/3/4 52/3/4
f 55/3/4 53/3/4 54/3/4
f 56/3/5 57/3/5 58/3/5
f 58/3/5 57/3/5 59/3/5
f 60/3/5 61/3/5 62/3/5
f 62/3/5 61/3/5 63/3/5
f 63/3/5 64/3/5 65/3/5
f 65/3/5 64/3/5 66/3/5
f 71/3/6 68/3/6 67/3/6
f 72/3/6 70/3/6 69/3/6
f 73/3/6 70/3/6 72/3/6
f 74/3/6 68/3/6 71/3/6
f 75/3/6 68/3/6 74/3/6
f 76/3/6 74/3/6 73/3/6
f 77/3/6 74/3/6 76/3/6
f 80/2/6 79/2/6 78/2/6
f 81/2/6 79/2/6 80/2/6
f 82/1/6 81/1/6 80/1/6
f 83/1/6 81/1/6 82/1/6
